<svg width="55" height="51" viewBox="0 0 55 51" fill="none" xmlns="http://www.w3.org/2000/svg">
<path id="Vector" d="M41.875 3.1875C39.6538 3.1875 37.5236 3.85915 35.953 5.05469C34.3824 6.25024 33.5 7.87175 33.5 9.5625V22.3125C35.7212 22.3125 37.8514 22.9841 39.422 24.1797C40.9926 25.3752 41.875 26.9967 41.875 28.6875V44.625C41.875 46.3158 40.9926 47.9373 39.422 49.1328C37.8514 50.3284 35.7212 51 33.5 51H8.375C6.15381 51 4.0236 50.3284 2.45298 49.1328C0.882364 47.9373 0 46.3158 0 44.625V28.6875C0 26.9967 0.882364 25.3752 2.45298 24.1797C4.0236 22.9841 6.15381 22.3125 8.375 22.3125H29.3125V9.5625C29.3125 7.02637 30.636 4.59411 32.992 2.80079C35.3479 1.00747 38.5432 0 41.875 0C45.2068 0 48.4021 1.00747 50.758 2.80079C53.114 4.59411 54.4375 7.02637 54.4375 9.5625V22.3125C54.4375 22.7352 54.2169 23.1406 53.8243 23.4395C53.4316 23.7383 52.899 23.9062 52.3438 23.9062C51.7885 23.9062 51.2559 23.7383 50.8632 23.4395C50.4706 23.1406 50.25 22.7352 50.25 22.3125V9.5625C50.25 7.87175 49.3676 6.25024 47.797 5.05469C46.2264 3.85915 44.0962 3.1875 41.875 3.1875Z" fill="#2F88FF"/>
</svg>
